<svg height="297.718598" viewBox="0 0 360 319.14206" width="335.887649" xmlns="http://www.w3.org/2000/svg" xmlns:xlink="http://www.w3.org/1999/xlink"><clipPath id="a"><path d="m586.15625 535.27734h55.84375v41.87891h-55.84375zm0 0"/></clipPath><g transform="matrix(5.4092123 0 0 5.4092123 -3140.6436 -2868.91812)"><g><path d="m608.07031 546.82422.1875 3.98828h-.37109zm0 0" fill="#211e1e" fill-rule="evenodd"/><path d="m609.11328 563.8125c0 .57812-.46875 1.04687-1.04297 1.04687-.57812 0-1.04687-.46875-1.04687-1.04687 0-.57422.46875-1.04297 1.04687-1.04297.57422 0 1.04297.46875 1.04297 1.04297" fill="#f39e0c"/><g fill="#211e1e"><path d="m631.26562 558.34766c-.48046 0-.875.17187-1.17578.50781-.30859.33984-.45703.75-.45703 1.23437 0 .53907.14453.98828.44141 1.34375.29297.35547.6914.53125 1.1914.53125.49219 0 .87891-.17187 1.15625-.51953.27735-.34375.41797-.79687.41797-1.35547 0-.48437-.15234-.89453-.45312-1.23437-.29688-.33594-.67188-.50781-1.1211-.50781m-1.40234 4.41015c-1.09766-.51953-1.64844-1.40625-1.64844-2.67578 0-.81641.28125-1.49219.85157-2.03906.57031-.53906 1.27343-.8125 2.10937-.8125.76563 0 1.44531.15234 1.89844.46875.21484.14844.47265.39453.66797.64844.35156.46484.53125 1.0625.53125 1.80468 0 .78516-.26563 1.42578-.73828 1.98047-.54688.64063-2.22266 1.3125-3.67188.625"/><path d="m629.15625 568.00781h2.50391c.49218 0 .8789-.15625 1.15625-.46875.27734-.3125.41406-.71875.41406-1.22656 0-.4375-.14844-.80859-.44922-1.11328-.29688-.30469-.67188-.45703-1.12109-.45703h-1.11329l.49219-1.17188h.52735c.76953 0 1.44921.14453 1.90234.44922.21484.14063.47266.37891.66797.625.35156.44141.53125 1.01953.53125 1.73047 0 .75391-.26953 1.36719-.73828 1.89844-.375.42578-1.28125.85937-2.28125.8789h-2.96485zm0 0"/><path d="m623.30078 561.95703c0-4.02734 2.55469-4.44922 3.52344-4.44922.23828 0 .58594.043 1.03515.12891l-.55859 1.3164c-.29297-.20312-.58594-.30468-.88281-.30468-.47656 0-.89063.21875-1.2461.65625-.35546.4375-.53515.96484-.53515 1.58203v4.32812h-1.33594zm0 0"/><path d="m594.35547 555.625h-.57813v1.14453h2.44532v9.38672c0 .64062-.17188 1.10156-.51172 1.38281-.34375.27735-.97266.41797-1.89453.41797v1.19531c.19921 0 .39062 0 .57812-.008 1.27344 0 2.21484-.24219 2.82813-.73047.60937-.49219.91406-1.25781.91406-2.30078l.004-10.48828zm0 0"/><path d="m599.10547 561.41797c0-1.15625.33203-2.09375 1-2.82031.66797-.72657 1.54687-1.08985 2.64062-1.08985 1.14844 0 2.04297.35156 2.67969 1.04688.63672.69922.95313 1.65234.95313 2.86328 0 1.20703-.32422 2.16406-.97266 2.875-.64453.71484-1.53516 1.0664-2.66016 1.0664-1.15234 0-2.04687-.35546-2.68359-1.07421-.64063-.71875-.95703-1.67579-.95703-2.86719m1.84375 0c0 1.66406.59765 2.49609 1.79687 2.49609.54688 0 .98438-.21875 1.30469-.64844.32031-.43359.48438-1.05078.48438-1.84765 0-1.64063-.59766-2.46094-1.78907-2.46094-.55078 0-.98828.21484-1.30859.64844-.32422.43359-.48828 1.03515-.48828 1.8125"/><path d="m612.33984 557.40234c-1.64062-.23437-3.27343 1.69141-3.65234 4.30469-.0352.27344-.0586.53906-.0664.80078.0117-.125.0234-.25.043-.3789.30469-2.11329 1.6211-3.67579 2.9375-3.48829 1.32031.19141 1.96485 1.83204 1.66016 3.95313-.30469 2.11719-1.44141 3.90625-2.76172 3.71484-.62891-.0898-1.14063-.5625-1.47656-1.25781.41015 1.00391 1.09375 1.69531 1.94922 1.82031 1.64062.23438 3.27734-1.6914 3.65234-4.30468.375-2.61719-.64844-4.92579-2.28516-5.16407"/><path d="m609.54687 551.05859-.0195-.004.004.043c0 .47656-.89844.58593-2.09375.58593-.59766 0-1.23047-.0664-1.64453-.18359l-.0234-.008.004.0234c.043.33204 1.0039.59375 2.19531.59375 1.23047 0 2.19141-.26953 2.19141-.61718 0-.16407-.21875-.31641-.61329-.4336"/><path d="m619.94141 564.98828c-.44532.26953-.90235.37109-1.33594.37109-.82813 0-1.46485-.23437-1.90625-.71093-.44141-.47657-.66016-1.15235-.66016-2.02735v-4.96875h1.33594v4.82032c0 1.16406.50781 1.75 1.52734 1.75 1.13672 0 1.94922-.8086 1.94922-1.82422v-4.7461h1.33985v2.30469c0 3.19922-1.23438 4.41797-2.25 5.03125"/><path d="m607.16016 552.58594.91015 9.91015.91016-9.91015c-.30078.0391-.60938.0586-.91016.0586s-.60937-.0195-.91015-.0586"/></g><g clip-path="url(#a)"><path d="m641.35937 535.55078c-20.54687.10547-38.98828 5.28906-54.94531 13.93359v27.41407h54.94531zm.12891-.25781h.12891v41.86328h-55.46094v-27.82422c17.14844-9.30469 35.8125-13.95703 55.33203-14.03906" fill="#211e1e"/></g></g><g fill="#211e1e" stroke-width=".75"><path d="m590.3623 582.52777q-.43554 0-.60351.0996-.16797.0996-.16797.33984 0 .19141.125.30469.12695.11133.34375.11133.29883 0 .47852-.21094.18164-.21289.18164-.56445v-.0801zm.7168-.14844v1.24805h-.35937v-.33203q-.12305.19922-.30664.29492-.1836.0937-.44922.0937-.33594 0-.53516-.1875-.19726-.18945-.19726-.50586 0-.36914.24609-.55664.24805-.1875.73828-.1875h.50391v-.0352q0-.24804-.16407-.38281-.16211-.13672-.45703-.13672-.1875 0-.36523.0449-.17774.0449-.3418.13476v-.33203q.19727-.0762.38281-.11328.18555-.0391.36133-.0391.47461 0 .70899.24609.23437.24609.23437.74609z"/><path d="m592.88184 581.43988h.35937l.44922 1.70703.44727-1.70703h.42382l.44922 1.70703.44727-1.70703h.35937l-.57226 2.1875h-.42383l-.4707-1.79297-.47266 1.79297h-.42383z"/><path d="m597.20996 581.69183q-.28906 0-.45703.22657-.16797.22461-.16797.61718 0 .39258.16602.61914.16797.22461.45898.22461.28711 0 .45508-.22656.16797-.22656.16797-.61719 0-.38867-.16797-.61523-.16797-.22852-.45508-.22852zm0-.30468q.46875 0 .73633.30468.26758.30469.26758.84375 0 .53711-.26758.84375-.26758.30469-.73633.30469-.4707 0-.73828-.30469-.26563-.30664-.26563-.84375 0-.53906.26563-.84375.26758-.30468.73828-.30468z"/><path d="m600.07715 581.77582q-.0605-.0352-.13281-.0508-.0703-.0176-.15625-.0176-.30469 0-.46875.19922-.16211.19726-.16211.56836v1.15234h-.36133v-2.1875h.36133v.33984q.11328-.19921.29492-.29492.18164-.0976.4414-.0976.0371 0 .082.006.0449.004.0996.0137z"/><path d="m600.4541 580.58832h.35938v3.03906h-.35938z"/><path d="m603.00488 581.77191v-1.18359h.35938v3.03906h-.35938v-.32812q-.11328.19531-.28711.29101-.17187.0937-.41406.0937-.39648 0-.64648-.31641-.24805-.3164-.24805-.83203 0-.51562.24805-.83203.25-.3164.64648-.3164.24219 0 .41406.0957.17383.0937.28711.28906zm-1.22461.76367q0 .39649.16211.62305.16407.22461.44922.22461.28516 0 .44922-.22461.16406-.22656.16406-.62305 0-.39648-.16406-.62109-.16406-.22656-.44922-.22656-.28515 0-.44922.22656-.16211.22461-.16211.62109z"/><path d="m606.9502 581.52386v.33594q-.15235-.084-.30665-.125-.15234-.043-.30859-.043-.34961 0-.54297.22266-.19336.2207-.19336.62109 0 .40039.19336.62305.19336.2207.54297.2207.15625 0 .30859-.041.1543-.043.30665-.12696v.33204q-.1504.0703-.3125.10546-.16016.0352-.3418.0352-.49414 0-.78516-.31055-.29101-.31054-.29101-.83789 0-.53515.29297-.84179.29492-.30664.80664-.30664.16601 0 .32421.0351.15821.0332.30665.10156z"/><path d="m607.5752 580.58832h.35937v3.03906h-.35937z"/><path d="m609.68066 582.52777q-.43554 0-.60351.0996-.16797.0996-.16797.33984 0 .19141.125.30469.12695.11133.34375.11133.29883 0 .47852-.21094.18164-.21289.18164-.56445v-.0801zm.7168-.14844v1.24805h-.35937v-.33203q-.12305.19922-.30664.29492-.1836.0937-.44922.0937-.33594 0-.53516-.1875-.19727-.18945-.19727-.50586 0-.36914.2461-.55664.24805-.1875.73828-.1875h.50391v-.0352q0-.24804-.16407-.38281-.16211-.13672-.45703-.13672-.1875 0-.36523.0449-.17774.0449-.3418.13476v-.33203q.19727-.0762.38281-.11328.18555-.0391.36133-.0391.47461 0 .70899.24609.23437.24609.23437.74609z"/><path d="m612.53223 581.50433v.33985q-.15235-.0781-.31641-.11719-.16406-.0391-.33984-.0391-.26758 0-.40235.082-.13281.082-.13281.24609 0 .125.0957.19727.0957.0703.38477.13476l.12305.0274q.38281.082.54296.23242.16211.14844.16211.41601 0 .30469-.24218.48243-.24024.17773-.66211.17773-.17578 0-.36719-.0352-.18945-.0332-.40039-.10156v-.37109q.19922.10351.39258.15625.19336.0508.38281.0508.25391 0 .39062-.0859.13672-.0879.13672-.24609 0-.14649-.0996-.22461-.0977-.0781-.43164-.15039l-.125-.0293q-.33398-.0703-.48242-.21484-.14844-.14649-.14844-.40039 0-.3086.21875-.47657.21875-.16796.6211-.16796.19922 0 .375.0293.17578.0293.32422.0879z"/><path d="m614.61621 581.50433v.33985q-.15234-.0781-.31641-.11719-.16406-.0391-.33984-.0391-.26758 0-.40234.082-.13282.082-.13282.24609 0 .125.0957.19727.0957.0703.38476.13476l.12305.0274q.38281.082.54297.23242.16211.14844.16211.41601 0 .30469-.24219.48243-.24023.17773-.66211.17773-.17578 0-.36719-.0352-.18945-.0332-.40039-.10156v-.37109q.19922.10351.39258.15625.19336.0508.38281.0508.25391 0 .39063-.0859.13672-.0879.13672-.24609 0-.14649-.0996-.22461-.0977-.0781-.43164-.15039l-.125-.0293q-.33399-.0703-.48242-.21484-.14844-.14649-.14844-.40039 0-.3086.21875-.47657.21875-.16796.62109-.16796.19922 0 .375.0293.17578.0293.32422.0879z"/><path d="m617.56738 581.10004-.53515 1.45117h1.07226zm-.22265-.38868h.44726l1.11133 2.91602h-.41016l-.26562-.74805h-1.31445l-.26563.74805h-.41601z"/><path d="m620.27832 580.58832v.29883h-.34375q-.19336 0-.26953.0781-.0742.0781-.0742.28125v.19336h.5918v.2793h-.5918v1.9082h-.36133v-1.9082h-.34375v-.2793h.34375v-.15234q0-.36524.16992-.53125.16993-.16797.53907-.16797z"/><path d="m621.84668 581.77582q-.0606-.0352-.13281-.0508-.0703-.0176-.15625-.0176-.30469 0-.46875.19922-.16211.19726-.16211.56836v1.15234h-.36133v-2.1875h.36133v.33984q.11328-.19921.29492-.29492.18164-.0976.44141-.0976.0371 0 .082.006.0449.004.0996.0137z"/><path d="m622.22363 581.43988h.35938v2.1875h-.35938zm0-.85156h.35938v.45508h-.35938z"/><path d="m624.90918 581.52386v.33594q-.15234-.084-.30664-.125-.15234-.043-.30859-.043-.34961 0-.54297.22266-.19336.2207-.19336.62109 0 .40039.19336.62305.19336.2207.54297.2207.15625 0 .30859-.041.1543-.043.30664-.12696v.33204q-.15039.0703-.3125.10546-.16016.0352-.3418.0352-.49414 0-.78515-.31055-.29102-.31054-.29102-.83789 0-.53515.29297-.84179.29492-.30664.80664-.30664.16602 0 .32422.0351.1582.0332.30664.10156z"/><path d="m626.52832 582.52777q-.43555 0-.60352.0996-.16796.0996-.16796.33984 0 .19141.125.30469.12695.11133.34375.11133.29882 0 .47851-.21094.18164-.21289.18164-.56445v-.0801zm.7168-.14844v1.24805h-.35938v-.33203q-.12304.19922-.30664.29492-.18359.0937-.44922.0937-.33593 0-.53515-.1875-.19727-.18945-.19727-.50586 0-.36914.24609-.55664.24805-.1875.73829-.1875h.5039v-.0352q0-.24804-.16406-.38281-.16211-.13672-.45703-.13672-.1875 0-.36524.0449-.17773.0449-.34179.13476v-.33203q.19726-.0762.38281-.11328.18555-.0391.36133-.0391.47461 0 .70898.24609.23438.24609.23438.74609z"/><path d="m629.80371 582.30707v1.32031h-.35937v-1.30859q0-.31055-.1211-.46485-.12109-.15429-.36328-.15429-.29101 0-.45898.18554-.16797.18555-.16797.50586v1.23633h-.36133v-2.1875h.36133v.33984q.1289-.19726.30273-.29492.17578-.0976.4043-.0976.37695 0 .57031.23437.19336.23242.19336.68555z"/><path d="m633.36621 581.52386v.33594q-.15234-.084-.30664-.125-.15234-.043-.30859-.043-.34961 0-.54297.22266-.19336.2207-.19336.62109 0 .40039.19336.62305.19336.2207.54297.2207.15625 0 .30859-.041.1543-.043.30664-.12696v.33204q-.15039.0703-.3125.10546-.16016.0352-.3418.0352-.49414 0-.78515-.31055-.29102-.31054-.29102-.83789 0-.53515.29297-.84179.29492-.30664.80664-.30664.16602 0 .32422.0351.1582.0332.30664.10156z"/><path d="m633.99121 581.43988h.35938v2.1875h-.35938zm0-.85156h.35938v.45508h-.35938z"/><path d="m635.45801 580.81879v.62109h.74023v.2793h-.74023v1.1875q0 .26758.0723.34375.0742.0762.29883.0762h.36914v.30078h-.36914q-.41601 0-.57422-.1543-.1582-.15625-.1582-.5664v-1.1875h-.26367v-.2793h.26367v-.62109z"/><path d="m637.58105 583.83051q-.15234.39062-.29687.50976-.14453.11914-.38672.11914h-.28711v-.30078h.21094q.14844 0 .23047-.0703.082-.0703.18164-.33203l.0645-.16407-.88476-2.15234h.38086l.68359 1.71094.68359-1.71094h.38086z"/></g></g></svg>